<svg width="24" height="24" viewBox="0 0 24 24" fill="currentColor" xmlns="http://www.w3.org/2000/svg">
<path d="M5.01074 14.439L11.4355 7.86475C11.585 7.70703 11.7842 7.61572 12 7.61572C12.2075 7.61572 12.415 7.70703 12.5562 7.86475L18.981 14.439C19.1221 14.5718 19.2051 14.7627 19.2051 14.9785C19.2051 15.4102 18.8813 15.7339 18.4497 15.7339C18.2422 15.7339 18.043 15.6592 17.9102 15.5181L12 9.4751L6.08154 15.5181C5.95703 15.6592 5.75781 15.7339 5.54199 15.7339C5.11035 15.7339 4.78662 15.4102 4.78662 14.9785C4.78662 14.7627 4.86963 14.5718 5.01074 14.439Z"/>
</svg>
