<svg width="24" height="24" viewBox="0 0 24 24" fill="none" xmlns="http://www.w3.org/2000/svg">
<path d="M12 20.4736C7.33496 20.4736 3.5332 16.6719 3.5332 12.0068C3.5332 7.3335 7.33496 3.54004 12 3.54004C16.6733 3.54004 20.4668 7.3335 20.4668 12.0068C20.4668 16.6719 16.6733 20.4736 12 20.4736ZM9.21094 15.4932C9.40186 15.4932 9.57617 15.4268 9.70898 15.2939L12 12.9863L14.2993 15.2939C14.4238 15.4268 14.5981 15.4932 14.7891 15.4932C15.1792 15.4932 15.4863 15.186 15.4863 14.8042C15.4863 14.6133 15.4199 14.439 15.2788 14.3145L12.9795 12.0151L15.2871 9.70752C15.4365 9.55811 15.4946 9.40869 15.4946 9.21777C15.4946 8.83594 15.1875 8.53711 14.8057 8.53711C14.623 8.53711 14.4736 8.59521 14.3325 8.73633L12 11.0522L9.68408 8.74463C9.55127 8.62012 9.40186 8.55371 9.21094 8.55371C8.8291 8.55371 8.53027 8.84424 8.53027 9.23438C8.53027 9.41699 8.59668 9.58301 8.72949 9.71582L11.0288 12.0151L8.72949 14.3228C8.59668 14.4473 8.53027 14.6216 8.53027 14.8042C8.53027 15.186 8.8291 15.4932 9.21094 15.4932Z" fill="#7F8295"/>
</svg>
