<svg width="24" height="24" viewBox="0 0 24 24" fill="none" xmlns="http://www.w3.org/2000/svg">
<path d="M13.27 21.1045C12.498 21.1045 12.2407 20.4902 11.9917 19.6519L10.6719 15.269C10.5142 14.7129 10.5391 14.4307 10.8628 14.0903L19.3379 4.95117C19.4375 4.84326 19.4292 4.71875 19.3462 4.63574C19.2632 4.56104 19.1387 4.54443 19.0308 4.64404L9.9248 13.1523C9.56787 13.4844 9.26904 13.501 8.73779 13.335L4.25537 11.9736C3.4585 11.7329 2.87744 11.4756 2.87744 10.7119C2.87744 10.106 3.41699 9.68262 4.11426 9.41699L18.3916 3.94678C18.7734 3.79736 19.1138 3.71436 19.396 3.71436C19.9355 3.71436 20.2676 4.04639 20.2676 4.58594C20.2676 4.86816 20.1846 5.2085 20.0352 5.59033L14.5981 19.793C14.291 20.5898 13.8677 21.1045 13.27 21.1045Z" fill="#AEB2C6"/>
</svg>
