<svg width="36" height="36" viewBox="0 0 36 36" fill="none" xmlns="http://www.w3.org/2000/svg">
<path d="M18 30.4922C11.4023 30.4922 6.04688 25.1367 6.04688 18.5391C6.04688 11.9414 11.4023 6.58594 18 6.58594C24.5977 6.58594 29.9531 11.9414 29.9531 18.5391C29.9531 25.1367 24.5977 30.4922 18 30.4922ZM18 28.5C23.5078 28.5 27.9609 24.0469 27.9609 18.5391C27.9609 13.0312 23.5078 8.57812 18 8.57812C12.4922 8.57812 8.03906 13.0312 8.03906 18.5391C8.03906 24.0469 12.4922 28.5 18 28.5ZM11.8711 19.8047C11.4023 19.8047 11.0508 19.4531 11.0508 18.9844C11.0508 18.5273 11.4023 18.1758 11.8711 18.1758H17.1797V11.0859C17.1797 10.6289 17.5312 10.2773 17.9883 10.2773C18.4453 10.2773 18.8086 10.6289 18.8086 11.0859V18.9844C18.8086 19.4531 18.4453 19.8047 17.9883 19.8047H11.8711Z" fill="currentColor"/>
</svg>
