<svg width="36" height="36" viewBox="0 0 36 36" fill="none" xmlns="http://www.w3.org/2000/svg">
<path d="M9.44531 17.5781C7.95703 17.5781 7.20703 16.8398 7.20703 15.293V10.043C7.20703 8.50781 7.95703 7.75781 9.44531 7.75781H14.7891C16.2773 7.75781 17.0273 8.50781 17.0273 10.043V15.293C17.0273 16.8398 16.2773 17.5781 14.7891 17.5781H9.44531ZM21.2109 17.5781C19.7109 17.5781 18.9609 16.8398 18.9609 15.293V10.043C18.9609 8.50781 19.7109 7.75781 21.2109 7.75781H26.543C28.0312 7.75781 28.7812 8.50781 28.7812 10.043V15.293C28.7812 16.8398 28.0312 17.5781 26.543 17.5781H21.2109ZM9.46875 15.9258H14.7539C15.1641 15.9258 15.375 15.7148 15.375 15.2812V10.043C15.375 9.62109 15.1641 9.41016 14.7539 9.41016H9.46875C9.05859 9.41016 8.85938 9.62109 8.85938 10.043V15.2812C8.85938 15.7148 9.05859 15.9258 9.46875 15.9258ZM21.2344 15.9258H26.5195C26.9297 15.9258 27.1289 15.7148 27.1289 15.2812V10.043C27.1289 9.62109 26.9297 9.41016 26.5195 9.41016H21.2344C20.8125 9.41016 20.6133 9.62109 20.6133 10.043V15.2812C20.6133 15.7148 20.8125 15.9258 21.2344 15.9258ZM9.44531 29.332C7.95703 29.332 7.20703 28.5938 7.20703 27.0469V21.8086C7.20703 20.2617 7.95703 19.5234 9.44531 19.5234H14.7891C16.2773 19.5234 17.0273 20.2617 17.0273 21.8086V27.0469C17.0273 28.5938 16.2773 29.332 14.7891 29.332H9.44531ZM21.2109 29.332C19.7109 29.332 18.9609 28.5938 18.9609 27.0469V21.8086C18.9609 20.2617 19.7109 19.5234 21.2109 19.5234H26.543C28.0312 19.5234 28.7812 20.2617 28.7812 21.8086V27.0469C28.7812 28.5938 28.0312 29.332 26.543 29.332H21.2109ZM9.46875 27.6797H14.7539C15.1641 27.6797 15.375 27.4688 15.375 27.0586V21.8086C15.375 21.3867 15.1641 21.1758 14.7539 21.1758H9.46875C9.05859 21.1758 8.85938 21.3867 8.85938 21.8086V27.0586C8.85938 27.4688 9.05859 27.6797 9.46875 27.6797ZM21.2344 27.6797H26.5195C26.9297 27.6797 27.1289 27.4688 27.1289 27.0586V21.8086C27.1289 21.3867 26.9297 21.1758 26.5195 21.1758H21.2344C20.8125 21.1758 20.6133 21.3867 20.6133 21.8086V27.0586C20.6133 27.4688 20.8125 27.6797 21.2344 27.6797Z" fill="#50525F"/>
</svg>
