<svg width="48" height="48" viewBox="0 0 48 48" fill="none" xmlns="http://www.w3.org/2000/svg">
<path d="M23.9844 14.3125C23.25 14.3125 22.625 13.6875 22.625 12.9375V8.125C22.625 7.375 23.25 6.75 23.9844 6.75C24.7344 6.75 25.3594 7.375 25.3594 8.125V12.9375C25.3594 13.6875 24.7344 14.3125 23.9844 14.3125ZM30.6406 17.0625C30.125 16.5469 30.125 15.6562 30.6406 15.125L34.0625 11.7344C34.5781 11.2031 35.4531 11.2031 35.9844 11.7344C36.5 12.25 36.5 13.125 35.9844 13.6562L32.5781 17.0625C32.0625 17.5938 31.1562 17.5938 30.6406 17.0625ZM17.3438 17.0625C16.8281 17.5938 15.9219 17.5938 15.4062 17.0625L12 13.6562C11.4844 13.125 11.4844 12.25 12 11.7344C12.5312 11.2031 13.4062 11.2031 13.9219 11.7344L17.3438 15.125C17.8594 15.6562 17.8594 16.5469 17.3438 17.0625ZM33.4062 23.7188C33.4062 22.9844 34.0312 22.3594 34.7656 22.3594H39.5781C40.3281 22.3594 40.9531 22.9844 40.9531 23.7188C40.9531 24.4531 40.3281 25.0781 39.5781 25.0781H34.7656C34.0312 25.0781 33.4062 24.4531 33.4062 23.7188ZM14.5781 23.7188C14.5781 24.4531 13.9531 25.0781 13.2188 25.0781H8.39062C7.65625 25.0781 7.03125 24.4531 7.03125 23.7188C7.03125 22.9844 7.65625 22.3594 8.39062 22.3594H13.2188C13.9531 22.3594 14.5781 22.9844 14.5781 23.7188ZM30.6406 30.3594C31.1562 29.8438 32.0625 29.8438 32.5781 30.3594L35.9844 33.7812C36.5 34.2969 36.5 35.1875 35.9844 35.7031C35.4531 36.2188 34.5781 36.2188 34.0625 35.7031L30.6406 32.2969C30.125 31.7812 30.125 30.8906 30.6406 30.3594ZM17.3438 30.3594C17.8594 30.8906 17.8594 31.7812 17.3438 32.2969L13.9219 35.7031C13.4062 36.2188 12.5312 36.2188 12 35.7031C11.4844 35.1875 11.4844 34.2969 12 33.7812L15.4062 30.3594C15.9219 29.8438 16.8281 29.8438 17.3438 30.3594ZM23.9844 33.125C24.7344 33.125 25.3594 33.75 25.3594 34.4844V39.3125C25.3594 40.0469 24.7344 40.6719 23.9844 40.6719C23.25 40.6719 22.625 40.0469 22.625 39.3125V34.4844C22.625 33.75 23.25 33.125 23.9844 33.125Z" fill="#509CF7"/>
</svg>
