<svg width="20" height="16" viewBox="0 0 20 16" fill="none" xmlns="http://www.w3.org/2000/svg">
<path d="M2.81982 15.6519C1.08496 15.6519 0.213379 14.7969 0.213379 13.0869V2.94336C0.213379 1.2334 1.08496 0.370117 2.81982 0.370117H17.1802C18.9233 0.370117 19.7866 1.2334 19.7866 2.94336V13.0869C19.7866 14.7969 18.9233 15.6519 17.1802 15.6519H2.81982ZM2.83643 14.3154H17.1636C17.9854 14.3154 18.4502 13.8755 18.4502 13.0122V3.01807C18.4502 2.15479 17.9854 1.70654 17.1636 1.70654H2.83643C2.00635 1.70654 1.5498 2.15479 1.5498 3.01807V13.0122C1.5498 13.8755 2.00635 14.3154 2.83643 14.3154ZM3.40918 13.1865C2.89453 13.1865 2.68701 12.9707 2.68701 12.4395V3.59082C2.68701 3.05957 2.89453 2.84375 3.40918 2.84375H9.28613C9.80908 2.84375 10.0166 3.05957 10.0166 3.59082V12.4395C10.0166 12.9707 9.80908 13.1865 9.28613 13.1865H3.40918Z" fill="#50525F"/>
</svg>
