<svg width="48" height="48" viewBox="0 0 48 48" fill="none" xmlns="http://www.w3.org/2000/svg">
<g opacity="0.8">
<path d="M13.9844 34.5625V12.875C13.9844 11.3281 14.875 10.5938 15.9375 10.5938C16.4062 10.5938 16.8906 10.7344 17.375 11L35.5781 21.6406C36.875 22.3906 37.3125 22.8906 37.3125 23.7188C37.3125 24.5312 36.875 25.0469 35.5781 25.7969L17.375 36.4375C16.8906 36.6875 16.4062 36.8438 15.9375 36.8438C14.875 36.8438 13.9844 36.1094 13.9844 34.5625ZM16.5 33.4531C16.5 33.7344 16.75 33.8594 16.9844 33.7188L33.6875 23.9688C33.7969 23.9062 33.8594 23.8125 33.8594 23.7188C33.8594 23.625 33.7969 23.5156 33.6875 23.4688L16.9844 13.7188C16.75 13.5781 16.5 13.7031 16.5 13.9844V33.4531Z" fill="#509CF7"/>
</g>
</svg>
