<svg width="24" height="24" viewBox="0 0 24 24" fill="none" xmlns="http://www.w3.org/2000/svg">
<path d="M4.81982 19.6519C3.08496 19.6519 2.21338 18.7969 2.21338 17.0869V6.94336C2.21338 5.2334 3.08496 4.37012 4.81982 4.37012H19.1802C20.9233 4.37012 21.7866 5.2334 21.7866 6.94336V17.0869C21.7866 18.7969 20.9233 19.6519 19.1802 19.6519H4.81982ZM4.83643 18.3154H19.1636C19.9854 18.3154 20.4502 17.8755 20.4502 17.0122V7.01807C20.4502 6.15479 19.9854 5.70654 19.1636 5.70654H4.83643C4.00635 5.70654 3.5498 6.15479 3.5498 7.01807V17.0122C3.5498 17.8755 4.00635 18.3154 4.83643 18.3154ZM5.40918 17.1865C4.94434 17.1865 4.68701 16.9126 4.68701 16.4395V12.7456C4.68701 12.2725 4.94434 11.9985 5.40918 11.9985H18.5908C19.0557 11.9985 19.3213 12.2725 19.3213 12.7456V16.4395C19.3213 16.9126 19.0557 17.1865 18.5908 17.1865H5.40918Z" fill="#50525F"/>
</svg>
