<svg width="48" height="48" viewBox="0 0 48 48" fill="none" xmlns="http://www.w3.org/2000/svg">
<path d="M7.0166 39.6689V16.6094C7.0166 13.1396 8.74316 11.3965 12.1631 11.3965H15.0684V8.3252C15.0684 4.87207 16.7949 3.1123 20.2148 3.1123H26.5732C28.3496 3.1123 29.7441 3.56055 30.9229 4.77246L39.3066 13.2891C40.5518 14.5674 40.9668 15.8623 40.9668 17.9043V31.3848C40.9668 34.8379 39.2402 36.5977 35.8203 36.5977H32.915V39.6689C32.915 43.1221 31.2051 44.8818 27.7686 44.8818H12.1631C8.72656 44.8818 7.0166 43.1387 7.0166 39.6689ZM31.3379 22.2871C32.666 23.6484 32.915 24.5781 32.915 26.7031V33.9248H35.6709C37.3975 33.9248 38.2939 32.9951 38.2939 31.335V17.1406H30.5244C28.6152 17.1406 27.6855 16.2275 27.6855 14.3018V5.78516H20.3477C18.6211 5.78516 17.7412 6.73145 17.7412 8.375V11.3965H18.0234C19.8828 11.3965 20.9287 11.6787 22.1904 12.9736L31.3379 22.2871ZM30.0928 13.9033C30.0928 14.4844 30.3252 14.7334 30.9062 14.7334H37.5967L30.0928 7.09668V13.9033ZM9.68945 39.6191C9.68945 41.2793 10.5693 42.209 12.2793 42.209H27.6357C29.3457 42.209 30.2422 41.2793 30.2422 39.6191V26.8359H20.8623C18.8037 26.8359 17.7412 25.79 17.7412 23.6982V14.0693H12.2959C10.5693 14.0693 9.68945 15.0156 9.68945 16.6426V39.6191ZM21.1777 24.3291H29.7275L20.248 14.6836V23.3994C20.248 24.0635 20.5137 24.3291 21.1777 24.3291Z" fill="#7F8295"/>
</svg>
