<svg width="24" height="24" viewBox="0 0 24 24" fill="none" xmlns="http://www.w3.org/2000/svg">
<path d="M2.80273 12.1396C2.35449 12.1396 2.08887 11.8159 2.08887 11.4756C2.08887 11.2847 2.17188 11.0854 2.35449 10.936L11.0039 3.67285C11.3193 3.40723 11.6597 3.27441 12 3.27441C12.3403 3.27441 12.6807 3.40723 12.9961 3.67285L17.4038 7.3667V5.74805C17.4038 5.38281 17.6445 5.15039 18.0015 5.15039H18.8896C19.2549 5.15039 19.4873 5.38281 19.4873 5.74805V9.11816L21.6455 10.936C21.8364 11.0854 21.9111 11.2847 21.9111 11.4756C21.9111 11.8159 21.6455 12.1396 21.1973 12.1396C20.9648 12.1396 20.7739 12.0151 20.6079 11.874L12.2905 4.89307C12.1992 4.81836 12.0996 4.77686 12 4.77686C11.9087 4.77686 11.8008 4.81836 11.7095 4.89307L3.40039 11.874C3.22607 12.0151 3.03516 12.1396 2.80273 12.1396ZM4.67871 18.9048V12.314L11.502 6.59473C11.8091 6.3374 12.1826 6.3291 12.498 6.59473L19.3213 12.314V18.9048C19.3213 20.0586 18.6323 20.731 17.4619 20.731H6.54639C5.37598 20.731 4.67871 20.0586 4.67871 18.9048ZM9.75879 19.3945H14.2412V14.5137C14.2412 14.1318 14.0005 13.8828 13.6104 13.8828H10.3979C10.0161 13.8828 9.75879 14.1318 9.75879 14.5137V19.3945Z" fill="#50525F"/>
</svg>
