<svg width="24" height="24" viewBox="0 0 24 24" fill="none" xmlns="http://www.w3.org/2000/svg">
<path d="M4.81982 19.6519C3.08496 19.6519 2.21338 18.7969 2.21338 17.0869V6.94336C2.21338 5.2334 3.08496 4.37012 4.81982 4.37012H19.1802C20.9233 4.37012 21.7866 5.2334 21.7866 6.94336V17.0869C21.7866 18.7969 20.9233 19.6519 19.1802 19.6519H4.81982ZM4.83643 18.3154H19.1636C19.9854 18.3154 20.4502 17.8755 20.4502 17.0122V7.01807C20.4502 6.15479 19.9854 5.70654 19.1636 5.70654H4.83643C4.00635 5.70654 3.5498 6.15479 3.5498 7.01807V17.0122C3.5498 17.8755 4.00635 18.3154 4.83643 18.3154ZM5.78271 10.7866L7.7832 9.57471L5.78271 8.37109C5.12695 7.97266 5.68311 6.99316 6.39697 7.44141L8.7876 8.93555C9.23584 9.21777 9.26074 9.92334 8.7876 10.2222L6.39697 11.7163C5.68311 12.1646 5.13525 11.1768 5.78271 10.7866ZM9.28564 11.708C9.28564 11.4092 9.51807 11.1685 9.81689 11.1685H12.9795C13.2783 11.1685 13.5107 11.4092 13.5107 11.708C13.5107 11.9985 13.2783 12.2393 12.9795 12.2393H9.81689C9.51807 12.2393 9.28564 11.9985 9.28564 11.708Z" fill="#50525F"/>
</svg>
