<svg width="48" height="48" viewBox="0 0 48 48" fill="currentColor" xmlns="http://www.w3.org/2000/svg">
<path d="M25.1289 36.9795C21.6592 36.9795 19.3848 35.6182 18.4053 33.0781L12.7607 38.0918C11.748 38.9717 11.1836 39.4033 10.3701 39.4033C9.20801 39.4033 8.56055 38.5898 8.56055 37.3115V32.9785H7.76367C2.81641 32.9785 0.160156 30.2559 0.160156 25.3916V12.6582C0.160156 7.79395 2.81641 5.05469 7.76367 5.05469H29.1465C34.0938 5.05469 36.75 7.79395 36.75 12.6582V13.4385H40.5518C45.333 13.4385 47.8398 16.0117 47.8398 20.7266V29.708C47.8398 34.4062 45.333 36.9795 40.5518 36.9795H40.2031V40.9639C40.2031 42.2256 39.5557 43.0391 38.4102 43.0391C37.6133 43.0391 37.0654 42.5908 36.0527 41.7275L30.5078 36.9795H25.1289ZM11.0508 31.5674V36.3652L16.3633 31.1025C16.8613 30.5879 17.2598 30.3887 17.8574 30.3389C17.8574 30.1396 17.8408 29.9238 17.8408 29.708V20.7266C17.8408 16.0117 20.3477 13.4385 25.1289 13.4385H34.0771V12.6748C34.0771 9.4375 32.4834 7.72754 29.1465 7.72754H7.76367C4.41016 7.72754 2.83301 9.4375 2.83301 12.6748V25.375C2.83301 28.6123 4.41016 30.3057 7.76367 30.3057H9.80566C10.7021 30.3057 11.0508 30.6543 11.0508 31.5674ZM25.1787 34.3066H30.4082C31.0889 34.3066 31.5537 34.4893 32.1016 35.0039L37.7129 40.0176V35.668C37.7129 34.7383 38.2773 34.3066 38.9912 34.3066H40.5186C43.7559 34.3066 45.167 32.7793 45.167 29.6582V20.7598C45.167 17.6553 43.7559 16.1113 40.5186 16.1113H25.1787C21.9248 16.1113 20.5303 17.6553 20.5303 20.7598V29.6748C20.5303 32.7793 21.9248 34.3066 25.1787 34.3066Z"/>
</svg>
