<svg width="48" height="48" viewBox="0 0 48 48" fill="none" xmlns="http://www.w3.org/2000/svg">
<path d="M24 39.6719C15.2188 39.6719 8.0625 32.5312 8.0625 23.7344C8.0625 14.9531 15.2188 7.79688 24 7.79688C32.7969 7.79688 39.9375 14.9531 39.9375 23.7344C39.9375 32.5312 32.7969 39.6719 24 39.6719ZM16.8125 24.4688C16.8125 28.5 20.0156 31.7344 24 31.7344C27.9844 31.7344 31.1875 28.5 31.1875 24.5312C31.1875 23.9219 30.6719 23.4219 30.0781 23.4219C29.4688 23.4219 28.9531 23.9219 28.9531 24.5312C28.9531 27.2969 26.75 29.5156 24 29.5156C21.25 29.5156 19.0469 27.2969 19.0469 24.5312C19.0469 21.7812 21.25 19.5625 24 19.5625C24.2031 19.5625 24.4219 19.5781 24.5781 19.6094L23.0156 21.1562C22.8281 21.3438 22.7031 21.6094 22.7031 21.8906C22.7031 22.4688 23.1562 22.9219 23.7344 22.9219C24 22.9219 24.2656 22.7812 24.4375 22.6094L27.5625 19.4844C27.9688 19.0938 27.9375 18.3906 27.5625 17.9844L24.4688 14.8438C24.2969 14.6406 24.0156 14.5156 23.7344 14.5156C23.1406 14.5156 22.7031 14.9688 22.7031 15.5469C22.7031 15.8281 22.8281 16.1094 23 16.2969L24.125 17.4531C24 17.4375 23.8281 17.4219 23.6875 17.4219C20.0625 17.4219 16.8125 20.5156 16.8125 24.4688Z" fill="#509CF7"/>
</svg>
