<svg width="24" height="24" viewBox="0 0 24 24" fill="none" xmlns="http://www.w3.org/2000/svg">
<path d="M5.56689 19.8511C4.15576 19.8511 3.30078 18.8716 3.30078 17.6016C3.30078 17.2114 3.40039 16.813 3.62451 16.4395L10.0659 5.2168C10.4893 4.46143 11.2363 4.07959 12 4.07959C12.7637 4.07959 13.5024 4.46143 13.9341 5.2168L20.3755 16.4395C20.583 16.8047 20.6992 17.2114 20.6992 17.6016C20.6992 18.8716 19.8442 19.8511 18.4331 19.8511H5.56689ZM12.0083 14.3062C12.415 14.3062 12.6558 14.0654 12.6641 13.6172L12.7886 9.10986C12.7969 8.66992 12.4482 8.34619 12 8.34619C11.5352 8.34619 11.2114 8.66162 11.2197 9.10156L11.3276 13.6172C11.3359 14.0571 11.5767 14.3062 12.0083 14.3062ZM12.0083 17.0869C12.498 17.0869 12.9297 16.6968 12.9297 16.1987C12.9297 15.6924 12.5063 15.3022 12.0083 15.3022C11.502 15.3022 11.0786 15.7007 11.0786 16.1987C11.0786 16.6885 11.5103 17.0869 12.0083 17.0869Z" fill="#50525F"/>
</svg>
