<svg width="48" height="48" viewBox="0 0 48 48" fill="currentColor" xmlns="http://www.w3.org/2000/svg">
<path d="M13.043 32.0156C11.9971 32.0156 11.1836 31.3682 10.9512 30.3887L10.4863 28.2637C10.4365 28.2471 10.3701 28.2305 10.3203 28.2139L8.42773 29.3262C7.58105 29.8408 6.55176 29.7412 5.83789 29.0107L4.14453 27.3174C3.39746 26.5703 3.29785 25.541 3.8291 24.6943L4.97461 22.8848C4.95801 22.8184 4.9248 22.7686 4.9082 22.7021L2.81641 22.2041C1.83691 21.9551 1.20605 21.125 1.20605 20.0957V17.8379C1.20605 16.8086 1.83691 15.9785 2.81641 15.7295L4.9082 15.2314C4.9248 15.165 4.95801 15.1152 4.97461 15.0488L3.8291 13.2393C3.31445 12.3926 3.39746 11.3633 4.14453 10.6162L5.83789 8.92285C6.55176 8.19238 7.59766 8.09277 8.44434 8.60742L10.3037 9.71973C10.3701 9.70312 10.4199 9.68652 10.4863 9.66992L10.9512 7.54492C11.1836 6.56543 11.9971 5.91797 13.043 5.91797H15.4668C16.5127 5.91797 17.3428 6.56543 17.5586 7.54492L18.0068 9.66992C18.0732 9.68652 18.123 9.70312 18.1895 9.71973L20.0654 8.60742C20.9121 8.09277 21.958 8.19238 22.6719 8.92285L24.3652 10.6162C25.1123 11.3633 25.2119 12.376 24.6807 13.2393L23.5352 15.0488C23.5518 15.1152 23.585 15.165 23.6016 15.2314L25.6768 15.7295C26.6729 15.9785 27.3037 16.8086 27.3037 17.8379V20.0957C27.3037 21.125 26.6562 21.9551 25.6768 22.2041L23.6016 22.7021C23.585 22.7686 23.5518 22.8184 23.5352 22.8848L24.6807 24.6943C25.2119 25.541 25.1123 26.5703 24.3652 27.3174L22.6719 29.0107C21.958 29.7412 20.9121 29.8408 20.0654 29.3262L18.1895 28.2139C18.1396 28.2305 18.0732 28.2471 18.0234 28.2637L17.5586 30.3887C17.3262 31.3682 16.5127 32.0156 15.4668 32.0156H13.043ZM13.3584 29.6914H15.1514C15.3174 29.6914 15.4004 29.6084 15.4502 29.4258L16.1641 26.4707C16.9609 26.2881 17.6914 25.9229 18.2725 25.6074L20.8623 27.1846C21.0117 27.2676 21.1445 27.2676 21.2607 27.1514L22.5225 25.9062C22.6387 25.79 22.6553 25.6738 22.5557 25.5244L20.9951 22.9512C21.1943 22.4531 21.626 21.7061 21.8252 20.8428L24.7471 20.1455C24.9131 20.0957 24.9961 20.0127 24.9961 19.8467V18.0869C24.9961 17.9209 24.9131 17.8379 24.7471 17.7881L21.8252 17.0908C21.626 16.2275 21.1943 15.4805 20.9951 14.9824L22.5557 12.4092C22.6553 12.2598 22.6387 12.1436 22.5225 12.0273L21.2607 10.7822C21.1445 10.666 21.0117 10.666 20.8623 10.749L18.2725 12.3262C17.6914 12.0107 16.9609 11.6455 16.1641 11.4629L15.4502 8.50781C15.4004 8.3252 15.3174 8.24219 15.1514 8.24219H13.3584C13.1924 8.24219 13.1094 8.3252 13.0596 8.50781L12.3457 11.4629C11.5488 11.6455 10.8184 12.0107 10.2373 12.3262L7.64746 10.749C7.48145 10.666 7.36523 10.666 7.24902 10.7822L5.9873 12.0273C5.87109 12.1436 5.85449 12.2598 5.9541 12.4092L7.51465 14.9824C7.31543 15.4805 6.88379 16.2275 6.68457 17.0908L3.7627 17.7881C3.59668 17.8379 3.51367 17.9209 3.51367 18.0869V19.8467C3.51367 20.0127 3.59668 20.0957 3.7627 20.1455L6.68457 20.8428C6.88379 21.7061 7.31543 22.4531 7.51465 22.9512L5.9541 25.5244C5.85449 25.6738 5.87109 25.79 5.9873 25.9062L7.24902 27.1514C7.36523 27.2676 7.48145 27.2676 7.64746 27.1846L10.2373 25.6074C10.8184 25.9229 11.5488 26.2881 12.3457 26.4707L13.0596 29.4258C13.1094 29.6084 13.1924 29.6914 13.3584 29.6914ZM14.2549 23.9805C11.4824 23.9805 9.22461 21.7393 9.22461 18.9668C9.22461 16.1943 11.4824 13.9531 14.2549 13.9531C17.0107 13.9531 19.2686 16.1943 19.2686 18.9668C19.2686 21.7393 17.0107 23.9805 14.2549 23.9805ZM14.2549 21.5898C15.6992 21.5898 16.8779 20.4277 16.8779 18.9668C16.8779 17.5059 15.6992 16.3438 14.2549 16.3438C12.7939 16.3438 11.6152 17.5059 11.6152 18.9668C11.6152 20.4277 12.7939 21.5898 14.2549 21.5898ZM34.8408 42.0928C33.8945 42.0928 33.0977 41.5449 32.9316 40.6816L32.6162 39.0049C32.5498 38.9883 32.5 38.9717 32.4336 38.9551L31.0225 39.835C30.2588 40.3164 29.3291 40.2168 28.665 39.5195L27.3203 38.1748C26.6562 37.4941 26.5234 36.5479 27.0215 35.7842L27.918 34.4229C27.9014 34.3564 27.8848 34.3232 27.8682 34.2568L26.2246 33.9082C25.3613 33.7256 24.7969 32.9619 24.7969 32.0156V30.1562C24.7969 29.2266 25.3613 28.4463 26.2246 28.2637L27.8682 27.9316C27.8848 27.8652 27.9014 27.8154 27.918 27.749L27.0215 26.3877C26.5234 25.624 26.6562 24.6943 27.3203 24.0137L28.665 22.6523C29.3291 21.9717 30.2588 21.8555 31.0225 22.3369L32.4336 23.2168C32.5 23.2002 32.5498 23.1836 32.6162 23.167L32.9316 21.5068C33.0977 20.627 33.8945 20.0791 34.8408 20.0791H36.75C37.6963 20.0791 38.4932 20.627 38.6426 21.5068L38.958 23.167C39.041 23.1836 39.0908 23.2002 39.1406 23.2168L40.5518 22.3369C41.3154 21.8555 42.2617 21.9717 42.9258 22.6523L44.2705 24.0137C44.9346 24.6943 45.0674 25.624 44.5527 26.3877L43.6562 27.749C43.6729 27.8154 43.6895 27.8652 43.7227 27.9316L45.3662 28.2637C46.2129 28.4463 46.7773 29.2266 46.7773 30.1562V32.0156C46.7773 32.9619 46.2129 33.7256 45.3662 33.9082L43.7227 34.2568C43.6895 34.3232 43.6729 34.3564 43.6562 34.4229L44.5527 35.7842C45.0674 36.5479 44.9346 37.4941 44.2705 38.1748L42.9258 39.5195C42.2617 40.2168 41.3154 40.3164 40.5518 39.835L39.1406 38.9551C39.0908 38.9717 39.041 38.9883 38.958 39.0049L38.6426 40.6816C38.4932 41.5449 37.6963 42.0928 36.75 42.0928H34.8408ZM35.2725 39.8848H36.3018C36.501 39.8848 36.6006 39.7852 36.6504 39.6191L37.2314 37.2285C37.8955 37.0791 38.4932 36.8467 39.124 36.4316L41.2158 37.7432C41.3652 37.8262 41.5146 37.8096 41.6475 37.6934L42.4111 36.9131C42.5439 36.7637 42.5605 36.6309 42.4775 36.4814L41.1992 34.4395C41.3486 34.041 41.7803 33.3271 41.9463 32.5137L44.3203 31.9658C44.4863 31.9326 44.5859 31.7998 44.5859 31.6338V30.5381C44.5859 30.3721 44.4863 30.2393 44.3203 30.2061L41.9463 29.6582C41.7803 28.8447 41.3486 28.1475 41.1992 27.7324L42.4775 25.6904C42.5605 25.5576 42.5439 25.4082 42.4111 25.2588L41.6475 24.4951C41.5146 24.3623 41.3652 24.3457 41.2158 24.4453L39.124 25.7402C38.4932 25.3418 37.8955 25.0928 37.2314 24.9434L36.6504 22.5527C36.6006 22.3867 36.501 22.2871 36.3018 22.2871H35.2725C35.0732 22.2871 34.9736 22.3867 34.9238 22.5527L34.3428 24.9434C33.6787 25.0928 33.0811 25.3418 32.4502 25.7402L30.3584 24.4453C30.2256 24.3457 30.0596 24.3623 29.9268 24.4951L29.1797 25.2588C29.0303 25.4082 29.0137 25.5576 29.1133 25.6904L30.375 27.7324C30.2422 28.1475 29.7939 28.8447 29.6279 29.6582L27.2539 30.2061C27.0879 30.2393 26.9883 30.3721 26.9883 30.5381V31.6338C26.9883 31.7998 27.0879 31.9326 27.2539 31.9658L29.6279 32.5137C29.7939 33.3271 30.2422 34.041 30.375 34.4395L29.1133 36.4814C29.0137 36.6309 29.0303 36.7637 29.1797 36.9131L29.9268 37.6934C30.0596 37.8096 30.2256 37.8262 30.3584 37.7432L32.4502 36.4316C33.0811 36.8467 33.6787 37.0791 34.3428 37.2285L34.9238 39.6191C34.9736 39.7852 35.0732 39.8848 35.2725 39.8848ZM35.7705 34.9873C33.6289 34.9873 31.8857 33.2275 31.8857 31.0859C31.8857 28.9443 33.6289 27.2012 35.7705 27.2012C37.9121 27.2012 39.6719 28.9443 39.6719 31.0859C39.6719 33.2275 37.9121 34.9873 35.7705 34.9873ZM35.7705 32.8789C36.75 32.8789 37.5635 32.0654 37.5635 31.0859C37.5635 30.1064 36.75 29.3096 35.7705 29.3096C34.791 29.3096 33.9941 30.1064 33.9941 31.0859C33.9941 32.0654 34.791 32.8789 35.7705 32.8789Z"/>
</svg>
