<svg width="24" height="24" viewBox="0 0 24 24" fill="currentColor" xmlns="http://www.w3.org/2000/svg">
<path d="M5.01074 12.9365V5.71484C5.01074 3.98828 5.87402 3.1084 7.58398 3.1084H11.5269C12.4565 3.1084 12.9795 3.24951 13.6104 3.89697L18.1841 8.55371C18.8481 9.23438 18.9727 9.69922 18.9727 10.77V18.3071C18.9727 20.0337 18.1177 20.9053 16.3994 20.9053H10.3149C10.5557 20.4985 10.7383 20.042 10.8462 19.5688H16.333C17.1963 19.5688 17.6362 19.1123 17.6362 18.2822V10.8281H12.9048C11.8672 10.8281 11.3442 10.3135 11.3442 9.26758V4.44482H7.65039C6.78711 4.44482 6.34717 4.91797 6.34717 5.73975V12.9365C6.10645 12.9116 5.89062 12.895 5.6665 12.895C5.45068 12.895 5.23486 12.9116 5.01074 12.9365ZM12.5977 9.10986C12.5977 9.44189 12.7222 9.57471 13.0542 9.57471H17.3789L12.5977 4.70215V9.10986ZM5.68311 22.4741C3.36719 22.4741 1.46631 20.5732 1.46631 18.2573C1.46631 15.9414 3.36719 14.0405 5.68311 14.0405C7.99902 14.0405 9.8999 15.9414 9.8999 18.2573C9.8999 20.5566 7.96582 22.4741 5.68311 22.4741ZM5.68311 20.897C5.99023 20.897 6.18945 20.6895 6.18945 20.3906V18.7637H7.80811C8.11523 18.7637 8.32275 18.5645 8.32275 18.2573C8.32275 17.9502 8.11523 17.7427 7.80811 17.7427H6.18945V16.124C6.18945 15.8252 5.99023 15.6177 5.68311 15.6177C5.37598 15.6177 5.17676 15.8252 5.17676 16.124V17.7427H3.5498C3.25098 17.7427 3.04346 17.9502 3.04346 18.2573C3.04346 18.5645 3.25098 18.7637 3.5498 18.7637H5.17676V20.3906C5.17676 20.6895 5.37598 20.897 5.68311 20.897Z"/>
</svg>
