<svg width="25" height="24" viewBox="0 0 25 24" fill="none" xmlns="http://www.w3.org/2000/svg">
<path d="M20.6743 12.5298C18.3584 12.5298 16.4575 10.6372 16.4575 8.31299C16.4575 6.00537 18.3584 4.09619 20.6743 4.09619C22.9819 4.09619 24.8911 6.00537 24.8911 8.31299C24.8911 10.6206 22.957 12.5298 20.6743 12.5298ZM5.17676 19.5522C3.44189 19.5522 2.57031 18.6973 2.57031 16.979V6.86035C2.57031 5.19189 3.40869 4.36182 4.86133 4.36182H7.22705C8.04883 4.36182 8.47217 4.51123 9.02002 4.97607L9.52637 5.39111C9.94141 5.74805 10.2817 5.88086 10.8462 5.88086H15.8682C15.6357 6.3457 15.5195 6.74414 15.4199 7.21729H10.4976C9.67578 7.21729 9.23584 7.05957 8.69629 6.61133L8.18994 6.18799C7.7666 5.83105 7.43457 5.68994 6.88672 5.68994H5.13525C4.33838 5.68994 3.90674 6.11328 3.90674 6.93506V9.00195H15.3535C15.395 9.43359 15.5029 9.85693 15.6523 10.2554H3.90674V16.9126C3.90674 17.7759 4.36328 18.2158 5.19336 18.2158H18.79C19.6118 18.2158 20.085 17.7759 20.085 16.9209V13.6255C20.5166 13.6919 21.0894 13.6836 21.4214 13.6255V16.979C21.4214 18.689 20.5498 19.5522 19.064 19.5522H5.17676ZM20.6743 10.9609C20.9814 10.9609 21.1807 10.7534 21.1807 10.4463V8.82764H22.7993C23.1064 8.82764 23.314 8.62842 23.314 8.31299C23.314 8.00586 23.1064 7.80664 22.7993 7.80664H21.1807V6.18799C21.1807 5.88086 20.9814 5.68164 20.6743 5.68164C20.3589 5.68164 20.1597 5.88086 20.1597 6.18799V7.80664H18.541C18.2339 7.80664 18.0347 8.00586 18.0347 8.31299C18.0347 8.62842 18.2339 8.82764 18.541 8.82764H20.1597V10.4463C20.1597 10.7534 20.3589 10.9609 20.6743 10.9609Z" fill="#50525F"/>
</svg>
