<svg width="32" height="32" viewBox="0 0 32 32" fill="none" xmlns="http://www.w3.org/2000/svg">
<path d="M32 16C32 24.8366 24.8366 32 16 32C7.16344 32 0 24.8366 0 16C0 7.16344 7.16344 0 16 0C24.8366 0 32 7.16344 32 16Z" fill="#AEB2C6"/>
<path fill-rule="evenodd" clip-rule="evenodd" d="M27.0973 27.5261C30.1197 24.6155 32 20.5273 32 16C32 7.16344 24.8366 0 16 0C7.16344 0 0 7.16344 0 16C0 20.3472 1.73371 24.2895 4.54743 27.1731C5.83748 24.77 8.93876 22 15.7333 22C22.8634 22 25.9265 25.0503 27.0973 27.5261ZM19.976 18.2426C18.8508 19.3679 17.3246 20 15.7333 20C14.142 20 12.6159 19.3679 11.4907 18.2426C10.3655 17.1174 9.73333 15.5913 9.73333 14C9.73333 12.4087 10.3655 10.8826 11.4907 9.75736C12.6159 8.63214 14.142 8 15.7333 8C17.3246 8 18.8508 8.63214 19.976 9.75736C21.1012 10.8826 21.7333 12.4087 21.7333 14C21.7333 15.5913 21.1012 17.1174 19.976 18.2426Z" fill="#E4E5ED"/>
</svg>
