<svg width="24" height="24" viewBox="0 0 24 24" fill="none" xmlns="http://www.w3.org/2000/svg">
<path d="M17.1216 12.0068C17.1216 12.2144 17.0386 12.397 16.8809 12.5547L10.3066 18.9878C10.1572 19.1372 9.97461 19.2119 9.75879 19.2119C9.33545 19.2119 9.00342 18.8882 9.00342 18.4565C9.00342 18.2407 9.08643 18.0581 9.21924 17.917L15.2622 12.0068L9.21924 6.09668C9.08643 5.95557 9.00342 5.76465 9.00342 5.55713C9.00342 5.12549 9.33545 4.80176 9.75879 4.80176C9.97461 4.80176 10.1572 4.87646 10.3066 5.01758L16.8809 11.459C17.0386 11.6084 17.1216 11.7993 17.1216 12.0068Z" fill="#7F8295"/>
</svg>
