<svg width="24" height="24" viewBox="0 0 24 24" fill="none" xmlns="http://www.w3.org/2000/svg">
<path d="M19.8824 4.88158L19.1465 4.14564C18.9385 3.93765 18.5545 3.96966 18.3145 4.2576L15.7543 6.80157C14.6022 6.30562 13.3384 6.06562 12.0103 6.06562C8.05819 6.08156 4.63441 8.38553 2.9863 11.6977C2.89027 11.9057 2.89027 12.1617 2.9863 12.3376C3.75423 13.9057 4.9063 15.2017 6.3463 16.1776L4.25031 18.3056C4.01031 18.5456 3.9783 18.9296 4.13835 19.1376L4.87429 19.8735C5.08228 20.0815 5.46627 20.0495 5.70627 19.7616L19.7542 5.71369C20.0582 5.47383 20.0902 5.08987 19.8822 4.88185L19.8824 4.88158ZM12.8583 9.71347C12.5863 9.64945 12.2983 9.56949 12.0263 9.56949C10.6663 9.56949 9.57839 10.6575 9.57839 12.0174C9.57839 12.2894 9.64241 12.5774 9.72236 12.8494L8.65025 13.9054C8.33029 13.3455 8.1543 12.7214 8.1543 12.0175C8.1543 9.88948 9.86633 8.17746 11.9943 8.17746C12.6984 8.17746 13.3223 8.35344 13.8823 8.6734L12.8583 9.71347Z" fill="#AEB2C6"/>
<path d="M21.0344 11.6979C20.4745 10.5779 19.7384 9.56994 18.8265 8.75391L15.8504 11.6979V12.0179C15.8504 14.1459 14.1384 15.8579 12.0104 15.8579H11.6905L9.80249 17.7459C10.5065 17.8898 11.2425 17.9859 11.9625 17.9859C15.9146 17.9859 19.3384 15.6819 20.9865 12.3537C21.1305 12.1297 21.1305 11.9058 21.0345 11.6977L21.0344 11.6979Z" fill="#AEB2C6"/>
</svg>
