<svg width="24" height="24" viewBox="0 0 24 24" fill="none" xmlns="http://www.w3.org/2000/svg">
<path d="M8.19824 20.5151C6.99463 20.5151 6.21436 19.7515 6.15625 18.5645L5.5752 6.48682H4.5874C4.25537 6.48682 3.96484 6.20459 3.96484 5.85596C3.96484 5.51562 4.25537 5.2334 4.5874 5.2334H8.35596V3.96338C8.35596 2.75977 9.13623 2.0293 10.4146 2.0293H13.5688C14.8472 2.0293 15.6274 2.75977 15.6274 3.96338V5.2334H19.4209C19.7612 5.2334 20.0352 5.51562 20.0352 5.85596C20.0352 6.19629 19.7612 6.48682 19.4209 6.48682H18.4248L17.8521 18.5562C17.7939 19.7432 16.9971 20.5151 15.8101 20.5151H8.19824ZM9.67578 4.04639V5.2334H14.3076V4.04639C14.3076 3.57324 13.9756 3.26611 13.4775 3.26611H10.5059C10.0078 3.26611 9.67578 3.57324 9.67578 4.04639ZM8.31445 19.2617H15.6772C16.167 19.2617 16.5239 18.9131 16.5405 18.415L17.0884 6.48682H6.87842L7.45947 18.415C7.48438 18.9048 7.84131 19.2617 8.31445 19.2617ZM9.54297 17.8423C9.23584 17.8423 9.02832 17.6514 9.02002 17.3525L8.771 8.479C8.7627 8.18848 8.97021 7.98926 9.28564 7.98926C9.58447 7.98926 9.79199 8.18018 9.80029 8.4707L10.0576 17.3525C10.0659 17.6431 9.8584 17.8423 9.54297 17.8423ZM12 17.8423C11.6846 17.8423 11.4688 17.6431 11.4688 17.3525V8.479C11.4688 8.18848 11.6846 7.98926 12 7.98926C12.3154 7.98926 12.5396 8.18848 12.5396 8.479V17.3525C12.5396 17.6431 12.3154 17.8423 12 17.8423ZM14.4653 17.8423C14.1499 17.8423 13.9424 17.6431 13.9507 17.3525L14.1997 8.479C14.208 8.18018 14.4155 7.98926 14.7144 7.98926C15.0298 7.98926 15.2373 8.18848 15.229 8.479L14.98 17.3525C14.9717 17.6514 14.7642 17.8423 14.4653 17.8423Z" fill="#FF8093"/>
</svg>
