<svg width="24" height="24" viewBox="0 0 24 24" fill="none" xmlns="http://www.w3.org/2000/svg">
<path d="M20.2593 5.2002L19.1221 4.05469L19.728 3.45703C20.002 3.19141 20.4087 3.1582 20.666 3.41553L20.8569 3.61475C21.1392 3.88867 21.1392 4.28711 20.8569 4.58594L20.2593 5.2002ZM10.2734 14.2563C10.1157 14.3228 9.94971 14.1318 10.0161 13.9907L10.7632 12.4302L18.5078 4.68555L19.645 5.80615L11.8921 13.5508L10.2734 14.2563ZM7.25195 19.6353C5.52539 19.6353 4.64551 18.7803 4.64551 17.062V7.49951C4.64551 5.78955 5.52539 4.92627 7.25195 4.92627H16.6567L15.3203 6.2627H7.27686C6.44678 6.2627 5.98193 6.71094 5.98193 7.57422V16.9956C5.98193 17.8589 6.44678 18.2988 7.27686 18.2988H16.9805C17.5615 18.2988 18.0181 17.8589 18.0181 16.9956V9.02686L19.3545 7.69043V17.062C19.3545 18.7803 18.4912 19.6353 16.9971 19.6353H7.25195Z" fill="#50525F"/>
</svg>
