<svg width="48" height="48" viewBox="0 0 48 48" fill="none" xmlns="http://www.w3.org/2000/svg">
<path d="M37.1953 32.1641C40.0078 32.1641 42.8672 31.6484 44.7656 30.875C45.3281 30.6641 45.6094 30.6406 45.9844 30.6406C46.7109 30.6406 47.5312 31.2969 47.5312 32.2578C47.5312 32.5156 47.5078 33.0312 47.2031 33.6406C43.0547 42.4062 34.5 47.7266 25.0312 47.7266C11.4844 47.7266 0.46875 36.7344 0.46875 23.1641C0.46875 13.1094 6.67969 4.17969 15.3516 0.664062C16.0078 0.40625 16.4531 0.335938 16.6406 0.335938C17.625 0.335938 18.3516 1.25 18.3516 2.02344C18.3516 2.49219 18.2812 2.82031 17.9297 3.5C17.0625 5.1875 16.3594 8.32812 16.3594 11.8906C16.3594 24.3828 24.2812 32.1641 37.1953 32.1641ZM4.14844 23C4.14844 35.1172 13.1484 44.0938 25.1953 44.0938C32.7188 44.0938 39.4922 40.5078 43.0547 34.625C41.1094 35.3047 39.0703 35.5859 36.6562 35.5859C21.7031 35.5859 12.8672 26.8672 12.8672 12.2188C12.8672 9.54688 13.2656 7.13281 14.0156 4.95312C7.94531 8.82031 4.14844 15.7109 4.14844 23Z" fill="#E4E5ED"/>
</svg>
