<svg width="52" height="52" viewBox="0 0 52 52" fill="none" xmlns="http://www.w3.org/2000/svg">
<path d="M26 9.76562C24.875 9.76562 23.9609 8.85156 23.9609 7.72656V2.6875C23.9609 1.5625 24.875 0.648438 26 0.648438C27.1016 0.648438 28.0156 1.5625 28.0156 2.6875V7.72656C28.0156 8.85156 27.1016 9.76562 26 9.76562ZM37.4844 14.5703C36.7109 13.7969 36.7109 12.4844 37.4844 11.7109L41.0938 8.10156C41.8672 7.32812 43.1797 7.32812 43.9531 8.10156C44.7266 8.89844 44.7266 10.2109 43.9531 10.9844L40.3672 14.5703C39.5703 15.3672 38.2812 15.3438 37.4844 14.5703ZM14.4688 14.5703C13.6719 15.3438 12.3828 15.3438 11.6094 14.5703L8.02344 10.9609C7.27344 10.2109 7.27344 8.89844 8.04688 8.10156C8.82031 7.32812 10.1562 7.35156 10.9062 8.10156L14.4922 11.7109C15.2422 12.4609 15.2422 13.8203 14.4688 14.5703ZM26 38.0078C19.4141 38.0078 14.0469 32.6641 14.0469 26.0781C14.0469 19.4922 19.4141 14.125 26 14.125C32.5859 14.125 37.9297 19.4922 37.9297 26.0781C37.9297 32.6641 32.5859 38.0078 26 38.0078ZM26 34.4453C30.6406 34.4453 34.3672 30.7188 34.3672 26.0781C34.3672 21.4375 30.6406 17.6875 26 17.6875C21.3594 17.6875 17.6094 21.4375 17.6094 26.0781C17.6094 30.7188 21.3594 34.4453 26 34.4453ZM42.2422 26.0781C42.2422 24.9766 43.1797 24.0391 44.2812 24.0391H49.3203C50.4219 24.0391 51.3359 24.9766 51.3359 26.0781C51.3359 27.1797 50.4219 28.0938 49.3203 28.0938H44.2812C43.1797 28.0938 42.2422 27.1797 42.2422 26.0781ZM9.73438 26.0781C9.73438 27.1797 8.79688 28.0938 7.69531 28.0938H2.65625C1.55469 28.0938 0.640625 27.1797 0.640625 26.0781C0.640625 24.9766 1.55469 24.0391 2.65625 24.0391H7.69531C8.79688 24.0391 9.73438 24.9766 9.73438 26.0781ZM14.4922 37.5859C15.2422 38.3828 15.2422 39.6719 14.4688 40.4453L10.8828 44.0547C10.1094 44.8281 8.77344 44.7812 8 44.0312C7.25 43.2344 7.25 41.9453 8.02344 41.1719L11.6094 37.5859C12.3828 36.8125 13.6953 36.8359 14.4922 37.5859ZM37.4844 37.5859C38.2812 36.8359 39.5703 36.8125 40.3438 37.5859L43.9531 41.1953C44.7266 41.9688 44.7266 43.2578 43.9531 44.0547C43.1797 44.8047 41.8672 44.8516 41.0938 44.0781L37.4844 40.4453C36.7109 39.6719 36.7109 38.3828 37.4844 37.5859ZM26 42.3906C27.1016 42.3906 28.0156 43.3047 28.0156 44.4062V49.4688C28.0156 50.5703 27.1016 51.4844 26 51.4844C24.875 51.4844 23.9609 50.5703 23.9609 49.4688V44.4062C23.9609 43.3047 24.875 42.3906 26 42.3906Z" fill="#50525F"/>
</svg>
