<svg width="24" height="24" viewBox="0 0 24 24" fill="none" xmlns="http://www.w3.org/2000/svg">
<path d="M12 20.4736C10.8296 20.4736 9.70898 20.2246 8.68799 19.7764C9.48486 18.8384 9.95801 17.6348 9.95801 16.3398C9.95801 15.9165 9.9082 15.4849 9.80859 15.0864C10.4644 14.9287 11.1948 14.8291 11.9917 14.8291C14.4985 14.8291 16.4243 15.7588 17.2378 16.73C18.375 15.4932 19.0557 13.833 19.0557 12.0068C19.0557 8.08887 15.9014 4.95117 11.9917 4.95117C8.40576 4.95117 5.48389 7.57422 5.02734 11.019C4.5874 10.9692 3.99805 11.0024 3.59131 11.0771C4.05615 6.86865 7.66699 3.54004 11.9917 3.54004C16.6152 3.54004 20.4668 7.375 20.4668 12.0068C20.4668 16.6304 16.6235 20.4736 12 20.4736ZM11.9917 13.418C10.3979 13.4014 9.15283 12.0649 9.14453 10.2886C9.12793 8.61182 10.3979 7.22559 11.9917 7.22559C13.5771 7.22559 14.8389 8.61182 14.8389 10.2886C14.8389 12.0732 13.5854 13.4346 11.9917 13.418ZM4.604 20.5649C2.29639 20.5649 0.387207 18.6724 0.387207 16.3481C0.387207 14.0405 2.29639 12.1313 4.604 12.1313C6.91992 12.1313 8.8208 14.0322 8.8208 16.3481C8.8208 18.6558 6.88672 20.5649 4.604 20.5649ZM2.4707 16.8545H6.7373C7.01123 16.8545 7.24365 16.6138 7.24365 16.3481C7.24365 16.0825 7.01123 15.8418 6.7373 15.8418H2.4707C2.18848 15.8418 1.96436 16.0825 1.96436 16.3481C1.96436 16.6138 2.18848 16.8545 2.4707 16.8545Z" fill="#FF8093"/>
</svg>
