<svg width="24" height="24" viewBox="0 0 24 24" fill="none" xmlns="http://www.w3.org/2000/svg">
<path d="M21.8219 0.0150146C21.797 0.0130005 21.7759 0 21.7499 0H11C9.34601 0 8 1.34601 8 3V3.99994C8 4.552 8.44788 5.00006 8.99994 5.00006C9.552 5.00006 9.99988 4.552 9.99988 3.99994V3C9.99988 2.44904 10.4489 2.00006 11 2.00006H15.6589L15.3539 2.10205C14.544 2.38202 14 3.14502 14 3.99994V18.9999H11C10.4489 18.9999 9.99988 18.551 9.99988 18V15.9999C9.99988 15.4481 9.552 15 8.99994 15C8.44788 15 8 15.4481 8 15.9999V18C8 19.654 9.34601 21 11 21H14V21.9999C14 23.103 14.8969 24 15.9999 24C16.2139 24 16.417 23.9691 16.6369 23.9009L22.645 21.8979C23.4559 21.618 23.9999 20.855 23.9999 20.0001V2.00006C23.9999 0.834045 22.9949 -0.0800171 21.8219 0.0150146Z" fill="#FF8093"/>
<path d="M10.7069 9.29316L6.70697 5.29322C6.42096 5.00721 5.99103 4.92115 5.61694 5.07624C5.24396 5.23114 5.00006 5.59626 5.00006 6.00019V9.00019H0.999939C0.448059 9.00019 0 9.44825 0 10.0001C0 10.5522 0.448059 11.0002 0.999939 11.0002H5.00006V14.0002C5.00006 14.4042 5.24396 14.7691 5.61694 14.9242C5.99103 15.0791 6.42096 14.9932 6.70697 14.7072L10.7069 10.7071C11.098 10.3162 11.098 9.68427 10.7069 9.29316Z" fill="#FF8093"/>
</svg>
