<svg width="204" height="50" viewBox="0 0 204 50" fill="none" xmlns="http://www.w3.org/2000/svg">
<path d="M63.7305 22.1543C63.4492 20.2793 61.9961 19.1309 60.0273 19.1309C57.3789 19.1309 55.6445 21.1699 55.6445 24.7324C55.6445 28.3887 57.4023 30.334 60.0039 30.334C61.9492 30.334 63.3789 29.2559 63.7305 27.4277L67.293 27.4512C66.8945 30.5918 64.2695 33.4512 59.957 33.4512C55.4102 33.4512 52.0586 30.2637 52.0586 24.7324C52.0586 19.2012 55.4805 16.0137 59.957 16.0137C63.8711 16.0137 66.8242 18.2637 67.293 22.1543H63.7305ZM85.293 24.7324C85.293 30.2637 81.8477 33.4512 77.3711 33.4512C72.8477 33.4512 69.4258 30.2402 69.4258 24.7324C69.4258 19.2012 72.8477 16.0137 77.3711 16.0137C81.8477 16.0137 85.293 19.2012 85.293 24.7324ZM81.707 24.7324C81.707 21.0996 79.9961 19.1309 77.3711 19.1309C74.7461 19.1309 73.0117 21.0996 73.0117 24.7324C73.0117 28.3652 74.7461 30.334 77.3711 30.334C79.9961 30.334 81.707 28.3652 81.707 24.7324ZM93.8008 33.2168H87.8242V16.248H93.8711C98.9805 16.248 102.098 19.4355 102.098 24.709C102.098 30.0293 98.9805 33.2168 93.8008 33.2168ZM91.3398 30.1934H93.6602C96.8945 30.1934 98.582 28.5059 98.582 24.709C98.582 20.9355 96.8945 19.2715 93.6836 19.2715H91.3398V30.1934ZM104.652 33.2168V16.248H116.043V19.1543H108.168V23.2793H115.457V26.1855H108.168V30.3105H116.066V33.2168H104.652ZM128.113 33.2168L123.262 16.248H127.105L129.965 28.1074H130.105L133.223 16.248H136.527L139.645 28.1309H139.785L142.645 16.248H146.488L141.637 33.2168H138.191L134.957 22.0137H134.816L131.559 33.2168H128.113ZM149.418 33.2168H145.621L151.504 16.248H156.027L161.887 33.2168H158.113L156.848 29.3027H150.707L149.418 33.2168ZM151.598 26.5605H155.957L153.824 20.0684H153.707L151.598 26.5605ZM164.699 16.248L168.824 29.1855H168.988L173.137 16.248H177.027L171.168 33.2168H166.645L160.762 16.248H164.699ZM178.949 33.2168V16.248H190.34V19.1543H182.465V23.2793H189.754V26.1855H182.465V30.3105H190.363V33.2168H178.949Z" fill="#509CF7"/>
<path d="M12 6.14453L17.75 11.7867M12 44.3607L17.75 38.346M17.75 38.346L25.625 30.1085L20.375 24.9373L25.625 19.5139L17.75 11.7867M17.75 38.346L4 24.9373L17.75 11.7867" stroke="#AED1FB" stroke-width="5"/>
<path d="M22.375 7.15315L25.5 4L46 24.9369L25.5 46L22.375 42.973" stroke="#509CF7" stroke-width="5"/>
</svg>
